REM DIRINDEX 1\2,1\3
REM DIRNAME cjc140,folder01,folder02
TITLE ""
FILE "Track11.mp3" MP3
  TRACK 01 AUDIO
    TITLE "0:"
    INDEX 01 00:00:00
  TRACK 02 AUDIO
    TITLE "3:cjc140_032"
    INDEX 01 00:00:05
  TRACK 03 AUDIO
    TITLE "2:cjc140_033"
    INDEX 01 00:01:56
  TRACK 04 AUDIO
    TITLE "2:cjc140_034"
    INDEX 01 00:09:12
  TRACK 05 AUDIO
    TITLE "2:cjc140_035"
    INDEX 01 00:16:22
  TRACK 06 AUDIO
    TITLE "0:"
    INDEX 01 00:21:51
